<svg width="26" height="26" viewBox="0 0 26 26" fill="none" xmlns="http://www.w3.org/2000/svg">
<path d="M13 0C5.83193 0 0 5.83193 0 13C0 20.1681 5.83193 26 13 26C20.1681 26 26 20.1681 26 13C26 5.83193 20.1681 0 13 0ZM13 24.375C6.72772 24.375 1.62501 19.2723 1.62501 13C1.62501 6.72772 6.72772 1.62501 13 1.62501C19.2723 1.62501 24.375 6.72772 24.375 13C24.375 19.2723 19.2723 24.375 13 24.375Z" fill="#5AC358"/>
<path d="M13.8125 4.875H12.1875V13.3364L17.3005 18.4494L18.4495 17.3005L13.8125 12.6636V4.875Z" fill="#5AC358"/>
</svg>
