<svg width="50" height="50" viewBox="0 0 50 50" fill="none" xmlns="http://www.w3.org/2000/svg">
<g clip-path="url(#clip0)">
<path d="M49.9663 21.596V21.5919C49.9871 21.3421 49.9997 21.0919 49.9997 20.8335C50.0025 20.5311 49.9875 20.2284 49.9545 19.9277C49.2213 11.557 38.2598 5.00024 24.9998 5.00024C11.8383 5.00024 1.02823 11.476 0.075683 19.6604C0.0268552 19.767 0.000813797 19.883 0 20.0001V29.1667C0 33.6593 2.97402 37.7177 7.73595 40.6018C7.82994 40.6962 7.94591 40.7666 8.07327 40.8061C13.2547 43.6523 19.0888 45.098 24.9998 45C30.9108 45.098 36.745 43.6523 41.9264 40.8061C42.0538 40.7666 42.1697 40.6962 42.2637 40.6018C47.0256 37.7177 49.9997 33.6593 49.9997 29.1667L49.9663 21.6005V21.596ZM24.9998 6.6669C37.3805 6.6669 47.5957 12.5336 48.2923 20.0587L48.2996 21.5586C48.2057 22.6311 47.9212 23.6789 47.4606 24.6518C44.629 30.7435 35.3924 35 24.9998 35C14.6072 35 5.37065 30.7435 2.53905 24.6494C1.97224 23.4567 1.67439 22.1543 1.66666 20.8335C1.66666 13.0218 12.1341 6.6669 24.9998 6.6669ZM9.66668 33.3786C9.89658 33.4896 10.1293 33.5991 10.3649 33.7069C10.6473 33.8351 10.9334 33.9592 11.2243 34.0792C11.4676 34.1801 11.7118 34.2794 11.9608 34.375C12.259 34.4894 12.5618 34.5976 12.8673 34.7087C13.1176 34.797 13.3747 34.8845 13.6339 34.9667C13.9501 35.0684 14.2716 35.162 14.595 35.2544C14.8559 35.3292 15.1159 35.4045 15.3808 35.4737C15.5325 35.5127 15.6815 35.5567 15.834 35.59V42.1969C13.5086 41.6081 11.2678 40.7231 9.16742 39.5642V33.1336C9.33343 33.2178 9.49986 33.2968 9.66668 33.3786ZM17.4999 35.955C17.7497 36.0051 18.0134 36.0384 18.2689 36.0869C18.5375 36.1337 18.8016 36.1837 19.0734 36.2244C19.455 36.2826 19.844 36.3278 20.233 36.3745C20.4898 36.4051 20.7433 36.4409 21.0025 36.4669C21.4383 36.51 21.8814 36.5393 22.3249 36.5686C22.5442 36.5829 22.7599 36.6044 22.9808 36.6158C23.3722 36.6354 23.7698 36.6386 24.1665 36.6468V43.3211C21.9265 43.2764 19.6951 43.0277 17.4999 42.5785V35.955ZM25.8332 36.6468C26.2291 36.6386 26.6274 36.6354 27.018 36.6158C27.239 36.6044 27.4547 36.5829 27.6732 36.5686C28.1167 36.5393 28.5598 36.5109 28.9956 36.4677C29.2548 36.4417 29.5091 36.4051 29.7658 36.3745C30.154 36.3278 30.5422 36.2826 30.9239 36.2252C31.1949 36.1845 31.4581 36.1345 31.7255 36.0877C31.9932 36.0409 32.2455 36.0043 32.4998 35.9558V42.5785C30.3046 43.0277 28.0731 43.2764 25.8332 43.3211V36.6468ZM34.1664 35.5835C34.3174 35.5461 34.4647 35.5062 34.6148 35.4668C34.8805 35.3984 35.1406 35.3227 35.4014 35.2487C35.7249 35.1559 36.0463 35.0619 36.3633 34.961C36.6204 34.8776 36.8731 34.7946 37.1254 34.7034C37.433 34.5968 37.7374 34.4878 38.0364 34.3702C38.2842 34.2754 38.528 34.1773 38.7681 34.0768C39.0602 33.9559 39.3483 33.831 39.6323 33.7029C39.8667 33.5962 40.0978 33.4872 40.3257 33.3761C40.4921 33.2927 40.667 33.2093 40.8331 33.1259V39.5536C38.7322 40.7121 36.4919 41.5967 34.1664 42.1859V35.5835ZM1.66666 29.1667V26.552L1.68008 26.5728C1.74681 26.6818 1.82657 26.7852 1.89574 26.8934C2.07762 27.1746 2.25991 27.4553 2.46418 27.7267C2.57241 27.8712 2.6957 28.0087 2.81004 28.1495C2.99518 28.377 3.17747 28.6052 3.37766 28.8254C3.51397 28.9751 3.66331 29.1187 3.80735 29.2652C4.00591 29.467 4.20245 29.6693 4.41403 29.8654C4.57394 30.0119 4.74728 30.1527 4.91411 30.2959C5.12977 30.481 5.34502 30.6662 5.57166 30.8436C5.75151 30.9844 5.9399 31.1195 6.12667 31.2562C6.35901 31.4226 6.59257 31.5943 6.83589 31.7563C7.03405 31.8885 7.23913 32.0163 7.4442 32.1444L7.50321 32.1819V38.5217C3.87327 36.025 1.66666 32.7503 1.66666 29.1667ZM42.4997 38.5226V32.1827L42.5571 32.1461C42.7597 32.0195 42.9632 31.8962 43.1589 31.7628C43.4087 31.5959 43.6415 31.4295 43.8763 31.2554C44.0606 31.1211 44.2457 30.9884 44.4223 30.8501C44.6547 30.6686 44.874 30.4802 45.0888 30.291C45.2556 30.1518 45.4172 30.0159 45.5722 29.8743C45.7923 29.6709 45.9962 29.4577 46.2013 29.251C46.3372 29.1126 46.4796 28.9779 46.609 28.8343C46.823 28.5995 47.0187 28.3562 47.2149 28.1129C47.3162 27.9867 47.4264 27.8626 47.5229 27.7377C47.7731 27.4118 47.992 27.0769 48.2048 26.7376C48.237 26.6863 48.2756 26.6379 48.3074 26.5862L48.3171 26.5703L48.333 29.1667C48.333 32.7503 46.1256 36.025 42.4997 38.5226Z" fill="white"/>
<path d="M24.999 26.6666C19.0681 26.6666 15.8324 25.015 15.8324 24.1666C15.8324 23.7064 15.4593 23.3332 14.9991 23.3332C14.5389 23.3332 14.1658 23.7064 14.1658 24.1666C14.1658 26.761 19.0673 28.1802 24.1657 28.3194V30.8332C24.1657 31.2934 24.5388 31.6665 24.999 31.6665C25.4592 31.6665 25.8323 31.2934 25.8323 30.8332V28.3194C30.9308 28.1802 35.8323 26.761 35.8323 24.1666C35.8323 21.431 30.3823 19.9999 24.999 19.9999C19.0681 19.9999 15.8324 18.3483 15.8324 17.5C15.8324 16.652 19.0681 15 24.999 15C30.93 15 34.1656 16.652 34.1656 17.5C34.1656 17.9602 34.5387 18.3333 34.9989 18.3333C35.4592 18.3333 35.8323 17.9602 35.8323 17.5C35.8323 14.906 30.9308 13.4867 25.8323 13.3476V10.8333C25.8323 10.3731 25.4592 10 24.999 10C24.5388 10 24.1657 10.3731 24.1657 10.8333V13.3476C19.0673 13.4867 14.1658 14.906 14.1658 17.5C14.1658 20.2359 19.6158 21.6666 24.999 21.6666C30.93 21.6666 34.1656 23.3186 34.1656 24.1666C34.1656 25.015 30.93 26.6666 24.999 26.6666Z" fill="white"/>
</g>
<defs>
<clipPath id="clip0">
<rect width="50" height="50" fill="white"/>
</clipPath>
</defs>
</svg>
