<svg width="50" height="42" viewBox="0 0 50 42" fill="none" xmlns="http://www.w3.org/2000/svg">
<path d="M48.5352 28.3217H46.9332C46.2698 18.1763 38.7909 10.1449 29.4 8.25068C31.4383 4.85918 28.9872 0.494629 25.0048 0.494629C21.029 0.494629 18.568 4.85361 20.6097 8.25068C11.2198 10.1448 3.73994 18.1755 3.07646 28.3217H1.46484C0.655859 28.3217 0 28.9775 0 29.7865V35.7436C0 36.5525 0.655859 37.2084 1.46484 37.2084H4.9125L6.03486 40.5117C6.23672 41.1058 6.79443 41.5053 7.42188 41.5053H42.5879C43.2153 41.5053 43.773 41.1057 43.9749 40.5116L45.0973 37.2084H48.5352C49.3441 37.2084 50 36.5525 50 35.7436V29.7865C50 28.9774 49.3441 28.3217 48.5352 28.3217ZM25.0049 3.42422C26.2151 3.42422 27.1997 4.40879 27.1997 5.61904C27.1997 6.8293 26.215 7.81387 25.0049 7.81387C23.7947 7.81387 22.8101 6.8293 22.8101 5.61904C22.8101 4.40879 23.7946 3.42422 25.0049 3.42422ZM25 10.7436H25.0098C35.0173 10.7436 43.2465 18.5031 43.997 28.3217H6.01279C6.76328 18.5031 14.9925 10.7436 25 10.7436ZM47.0703 34.2787H44.0479C43.4204 34.2787 42.8627 34.6783 42.6608 35.2724L41.5385 38.5756H8.47129L7.34893 35.2723C7.14707 34.6782 6.58936 34.2787 5.96191 34.2787H2.92969V31.2514H47.0703V34.2787Z" fill="url(#paint0_linear)"/>
<defs>
<linearGradient id="paint0_linear" x1="25" y1="0.494629" x2="25" y2="41.5053" gradientUnits="userSpaceOnUse">
<stop stop-color="#87DB85"/>
<stop offset="0.9999" stop-color="#5BC459"/>
<stop offset="1" stop-color="#54C052"/>
</linearGradient>
</defs>
</svg>
