<svg width="50" height="50" viewBox="0 0 50 50" fill="none" xmlns="http://www.w3.org/2000/svg">
<g clip-path="url(#clip0)">
<path d="M49.6433 35.9783C48.716 33.8089 46.2467 32.8457 44.1154 33.5568L35.2444 36.5135C35.2188 36.1477 35.1471 35.783 35.0281 35.426C34.6569 34.3124 33.8741 33.4099 32.8239 32.885L20.6764 26.8112C19.0334 25.9895 17.1551 25.8148 15.3889 26.3195L11.7645 27.3552C11.4403 25.2495 9.61647 23.6324 7.42149 23.6324H1.46484C0.655746 23.6324 0 24.2882 0 25.0973V45.6047C0 46.4134 0.655746 47.0696 1.46484 47.0696H10.3512C11.1603 47.0696 11.816 46.4134 11.816 45.6047V44.8193L19.3893 48.6057C22.7795 50.2995 26.82 50.4982 30.4741 48.9304L47.335 41.7469C49.5659 40.7917 50.6 38.2099 49.6433 35.9783ZM8.88633 44.1399H2.92969V26.5621H7.42187C8.22944 26.5621 8.88633 27.219 8.88633 28.027V44.1399ZM46.1845 39.053L29.3224 46.2368C26.506 47.4449 23.3681 47.3187 20.6989 45.985L11.816 41.544V30.3871L16.1938 29.1367C17.2535 28.8334 18.3803 28.9383 19.3664 29.4315L31.514 35.5053C32.2365 35.8666 32.5306 36.7481 32.1693 37.471C31.8008 38.2076 30.9143 38.4815 30.2036 38.126L22.9561 34.5024C21.1071 33.5777 18.8324 34.0824 17.548 35.7021C17.0452 36.3358 17.1513 37.2574 17.7853 37.7598C18.4189 38.2626 19.3405 38.1565 19.8433 37.5225C20.2713 36.9827 21.0293 36.8145 21.6457 37.1227L28.8933 40.7463C30.487 41.5432 32.4421 41.3063 33.7974 40.0841L45.0424 36.3358C45.7737 36.0916 46.6415 36.4094 46.9497 37.1311C47.2732 37.8849 46.9143 38.7402 46.1845 39.053Z" fill="url(#paint0_linear)"/>
<path d="M32.3208 10.4492C32.3208 11.2579 31.6651 11.9141 30.856 11.9141C30.0469 11.9141 29.3911 11.2579 29.3911 10.4492C29.3911 9.64012 30.0469 8.98438 30.856 8.98438C31.6651 8.98438 32.3208 9.64012 32.3208 10.4492Z" fill="url(#paint1_linear)"/>
<path d="M38.1797 16.3082C38.1797 17.1173 37.524 17.7731 36.7153 17.7731C35.9062 17.7731 35.2504 17.1173 35.2504 16.3082C35.2504 15.4995 35.9062 14.8434 36.7153 14.8434C37.524 14.8434 38.1797 15.4995 38.1797 16.3082Z" fill="url(#paint2_linear)"/>
<path d="M37.7536 9.41312C37.1818 8.8413 36.2541 8.8413 35.6823 9.41312L29.8229 15.2725C29.2507 15.8447 29.2507 16.772 29.8229 17.3439C30.3947 17.9161 31.3224 17.9161 31.8943 17.3439L37.7536 11.4849C38.3258 10.9127 38.3258 9.98532 37.7536 9.41312Z" fill="url(#paint3_linear)"/>
<path d="M18.2257 17.4522L32.8738 29.1706C33.1412 29.3846 33.465 29.4918 33.7889 29.4918C34.1113 29.4918 34.4336 29.3857 34.7002 29.1736L49.4459 17.4553C49.9338 17.0673 50.1231 16.4139 49.9178 15.8256C49.7126 15.2374 49.1576 14.8434 48.5346 14.8434H44.0428V1.46484C44.0428 0.655746 43.3867 0 42.578 0H25.0002C24.1911 0 23.5354 0.655746 23.5354 1.46484V14.8434H19.1409C18.5187 14.8434 17.9644 15.2363 17.7588 15.8234C17.5528 16.4104 17.7401 17.0635 18.2257 17.4522ZM25.0002 17.773C25.809 17.773 26.4651 17.1173 26.4651 16.3082V2.92969H41.1131V16.3082C41.1131 17.1173 41.7689 17.773 42.578 17.773H44.3373L33.792 26.1532L23.3168 17.773H25.0002Z" fill="url(#paint4_linear)"/>
</g>
<defs>
<linearGradient id="paint0_linear" x1="-2.97056e-07" y1="37.0001" x2="50" y2="37.0001" gradientUnits="userSpaceOnUse">
<stop stop-color="#87DB85"/>
<stop offset="1" stop-color="#54C052"/>
</linearGradient>
<linearGradient id="paint1_linear" x1="29.0005" y1="10.5" x2="32.5005" y2="10.5" gradientUnits="userSpaceOnUse">
<stop stop-color="#87DB85"/>
<stop offset="1" stop-color="#54C052"/>
</linearGradient>
<linearGradient id="paint2_linear" x1="35.0004" y1="16.5001" x2="38.0004" y2="16.5001" gradientUnits="userSpaceOnUse">
<stop stop-color="#87DB85"/>
<stop offset="1" stop-color="#54C052"/>
</linearGradient>
<linearGradient id="paint3_linear" x1="28.9992" y1="12.9999" x2="37.9992" y2="12.9999" gradientUnits="userSpaceOnUse">
<stop stop-color="#87DB85"/>
<stop offset="1" stop-color="#54C052"/>
</linearGradient>
<linearGradient id="paint4_linear" x1="18.0003" y1="15" x2="50.0003" y2="15" gradientUnits="userSpaceOnUse">
<stop stop-color="#87DB85"/>
<stop offset="1" stop-color="#54C052"/>
</linearGradient>
<clipPath id="clip0">
<rect width="50" height="50" fill="white"/>
</clipPath>
</defs>
</svg>
