<svg width="50" height="50" viewBox="0 0 50 50" fill="none" xmlns="http://www.w3.org/2000/svg">
<path d="M45.6041 12.4039H43.7961L46.6401 9.57441C48.3537 7.86084 48.3537 5.07246 46.6401 3.35889C44.9266 1.64531 42.1382 1.64521 40.4219 3.36152L37.595 6.20283V4.39482C37.595 1.97158 35.6112 0 33.173 0C30.7644 0 28.8048 1.97158 28.8048 4.39482V10.4971C24.5131 10.0822 20.1572 12.0189 17.6546 15.8866L0.808987 42.1521C-0.486131 44.1536 -0.202537 46.8299 1.48321 48.5157C3.17285 50.2053 5.84971 50.4822 7.8419 49.1931L34.1173 32.3411C37.9954 29.8317 39.9145 25.4627 39.5019 21.1941H45.6041C48.0273 21.1941 49.9989 19.2346 49.9989 16.826C49.9989 14.3877 48.0273 12.4039 45.6041 12.4039ZM34.3333 28.3457L30.065 24.0774C29.493 23.5053 28.5653 23.5054 27.9932 24.0774C27.421 24.6496 27.421 25.5772 27.9932 26.1493L32.0377 30.1938L21.9394 36.6705L19.7057 34.4368C19.1336 33.8646 18.2061 33.8646 17.6338 34.4368C17.0616 35.009 17.0616 35.9365 17.6338 36.5087L19.4147 38.2896L6.25508 46.7299C5.40576 47.2794 4.27022 47.1591 3.55498 46.4438C2.83975 45.7286 2.71944 44.5931 3.27217 43.7388L8.4708 35.6331L9.34639 36.5087C9.91846 37.0809 10.8461 37.0809 11.4183 36.5087C11.9904 35.9365 11.9904 35.009 11.4183 34.4368L10.0899 33.1085L16.5665 23.0102L19.7056 26.1492C20.2775 26.7213 21.2052 26.7215 21.7774 26.1492C22.3496 25.5771 22.3496 24.6495 21.7774 24.0773L18.1856 20.4854L20.1177 17.473C23.2269 12.668 29.8156 12.0172 33.7857 15.7902C37.0813 18.9225 37.8842 24.427 34.3333 28.3457ZM45.6041 18.2641H38.8341C38.5661 17.5339 38.2249 16.825 37.8113 16.1473C37.3313 15.3608 36.7575 14.6279 36.1013 13.9666C34.898 12.7541 33.4185 11.7827 31.7349 11.1648V4.39482C31.7349 3.57353 32.3666 2.93008 33.173 2.93008C33.9956 2.93008 34.6649 3.58721 34.6649 4.39482V9.75254C34.6649 10.3458 35.0227 10.8804 35.571 11.1067C36.1194 11.3331 36.7501 11.2063 37.1685 10.7858L42.4962 5.43076C43.0676 4.85947 43.997 4.85957 44.5681 5.43076C45.1394 6.00205 45.1394 6.93145 44.5707 7.5L39.213 12.8305C38.2903 13.7484 38.9394 15.3341 40.2463 15.3341H45.604C46.4116 15.3341 47.0688 16.0034 47.0688 16.8261C47.0688 17.6323 46.4254 18.2641 45.6041 18.2641Z" fill="url(#paint0_linear)"/>
<defs>
<linearGradient id="paint0_linear" x1="24.9992" y1="0" x2="24.9992" y2="50" gradientUnits="userSpaceOnUse">
<stop stop-color="#87DB85"/>
<stop offset="1" stop-color="#54C052"/>
</linearGradient>
</defs>
</svg>
