<svg width="50" height="50" viewBox="0 0 50 50" fill="none" xmlns="http://www.w3.org/2000/svg">
<g clip-path="url(#clip0)">
<path d="M49.8884 34.3536C49.5416 33.0897 48.4818 32.1491 47.1855 31.9546V12.9549H48.8411C49.2983 12.9549 49.6689 12.5842 49.6689 12.1271V3.84893C49.6689 3.39137 49.2983 3.02112 48.8411 3.02112H12.4172C11.9601 3.02112 11.5894 3.39137 11.5894 3.84893V12.1271C11.5894 12.5842 11.9601 12.9549 12.4172 12.9549H14.0729V29.5112H13.245C11.1905 29.5064 9.17792 30.0953 7.45034 31.2073V27.0278C7.45034 26.5702 7.07968 26.2 6.62252 26.2H0.827816C0.370658 26.2 0 26.5702 0 27.0278V46.0675C0 46.5247 0.370658 46.8953 0.827816 46.8953H6.62252C7.07968 46.8953 7.45034 46.5247 7.45034 46.0675V41.8884C9.17832 42.9996 11.1905 43.5885 13.245 43.5841H26.8377C27.7795 43.5825 28.7169 43.4588 29.6267 43.2163L47.5497 38.4151C49.3132 37.9345 50.3581 36.1204 49.8884 34.3536ZM13.245 4.67675H48.0133V11.2993H13.245V4.67675ZM15.7285 12.9549H45.5299V32.0969L35.9223 34.6733C35.5265 33.7299 34.7193 33.0213 33.7327 32.7509L22.5786 29.7594C21.9505 29.5941 21.3037 29.5104 20.6542 29.5112H15.7285V12.9549ZM5.79471 45.2397H1.65563V27.8556H5.79471V45.2397ZM47.12 36.8156L29.2003 41.6168C28.4295 41.8225 27.6356 41.9272 26.8377 41.9285H13.245C11.2741 41.9329 9.35537 41.2934 7.78139 40.1071L7.45034 39.8589V33.2364L7.78139 32.9878C9.35537 31.8015 11.2741 31.1616 13.245 31.1668H20.6542C21.1598 31.1664 21.6639 31.2319 22.1534 31.3613L33.3038 34.3504C33.9627 34.5319 34.4449 35.0965 34.5201 35.776C34.529 35.81 34.5399 35.8435 34.5532 35.8763C34.5435 35.9118 34.5362 35.9478 34.5314 35.9846C34.5322 36.1192 34.514 36.2534 34.4768 36.3827C34.282 37.1042 33.6284 37.6059 32.881 37.6071C32.7351 37.6083 32.5904 37.5897 32.4497 37.5525L25.4133 35.6657C25.1247 35.58 24.8122 35.6576 24.5972 35.8686C24.3826 36.0796 24.2989 36.3904 24.3793 36.6806C24.4598 36.9705 24.6914 37.1944 24.9844 37.2643L32.0209 39.152C32.3018 39.2259 32.5916 39.2631 32.8826 39.2627C34.3709 39.2619 35.6753 38.2663 36.0686 36.8306C36.1147 36.6645 36.1458 36.4947 36.1624 36.3233L46.2542 33.6171C46.3261 33.599 46.4042 33.5804 46.4777 33.5682C47.3019 33.4619 48.0768 33.983 48.2898 34.7857C48.327 34.9256 48.3456 35.0699 48.3443 35.2146C48.3456 35.964 47.8435 36.6204 47.12 36.8156Z" fill="#54C052"/>
<path d="M26.4894 16.2662H34.7675C35.2247 16.2662 35.5954 15.8956 35.5954 15.4384C35.5954 14.9809 35.2247 14.6106 34.7675 14.6106H26.4894C26.0322 14.6106 25.6616 14.9809 25.6616 15.4384C25.6616 15.8956 26.0322 16.2662 26.4894 16.2662Z" fill="#54C052"/>
</g>
<defs>
<clipPath id="clip0">
<rect width="50" height="50" fill="white" transform="translate(0 -0.000488281)"/>
</clipPath>
</defs>
</svg>
