<svg width="50" height="50" viewBox="0 0 50 50" fill="none" xmlns="http://www.w3.org/2000/svg">
<path d="M41.6656 23.447H39.1052L41.9524 17.0635C42.5842 15.6467 42.1661 13.9805 41.0247 12.685L45.1553 8.569C45.5627 8.16236 45.5643 7.50318 45.1568 7.09576C44.751 6.68834 44.0918 6.68677 43.6858 7.09273L40.3594 10.407L42.4437 5.73394L42.4392 5.73238C42.4529 5.70796 42.4651 5.68277 42.4773 5.65689C42.7123 5.13199 42.4758 4.51627 41.9494 4.28209C41.4245 4.04713 40.808 4.28365 40.5746 4.80855C40.564 4.83453 40.5548 4.86041 40.5456 4.88716L40.5395 4.8856L38.5191 9.41978L38.7617 4.73072C38.7907 4.15621 38.3497 3.66646 37.7745 3.63668C37.2008 3.60689 36.7109 4.04869 36.6819 4.6232L36.3706 10.584H36.366C34.6188 10.584 33.0777 11.3905 32.4399 12.8202L27.7006 23.4471H26.3929C24.9082 19.8751 21.4322 17.6656 17.7274 17.6656C17.2452 17.6656 16.7585 17.703 16.2718 17.78L15.9086 15.4927C15.817 14.9251 15.2845 14.5376 14.7153 14.6276C14.1477 14.7184 13.7602 15.2524 13.8517 15.8201L14.2515 18.3355C11.8177 19.3029 10.0004 21.1874 9.05889 23.4472H8.33252H0V46.3635H50V23.447H41.6656ZM32.6446 17.474C32.6446 17.474 32.6446 17.474 33 16.4995C33 16.4995 33 16.4995 33.493 15.5712L34.3414 13.6692C34.6176 13.0512 35.3928 12.6674 36.3662 12.6674C36.9201 12.6674 37.4999 12.7963 38.0447 13.039C38.8732 13.4083 39.5508 14.0164 39.9078 14.7068C40.0711 15.0226 40.3076 15.6391 40.0497 16.2144L37.5091 21.9113C37 22.9995 37.2334 22.4739 37 22.9995C36.7666 23.5251 37 23.4995 37 23.4995L35.8368 23.447H29.9805L32.6446 17.474ZM15.2894 20.1694C16.0798 19.8902 16.9007 19.7482 17.7277 19.7482C19.2231 19.7482 20.6666 20.2021 21.9025 21.0612C22.8074 21.6891 23.5444 22.5016 24.0784 23.4469H11.3739C12.2406 21.9158 13.6139 20.7615 15.2894 20.1694ZM47.9156 44.2806H2.08281V35.9462H47.9156V44.2806ZM47.9156 33.8635H2.08281V25.5299H47.9156V33.8635ZM47.9156 23.447H43.75H47.8936H47.9156Z" fill="#54C052"/>
</svg>
