<svg width="26" height="26" viewBox="0 0 26 26" fill="none" xmlns="http://www.w3.org/2000/svg">
<path d="M25.3027 5.53326C25.3027 5.20342 25.1035 4.90621 24.7984 4.78084L13.3093 0.0610073C13.1112 -0.0203358 12.8891 -0.0203358 12.6911 0.0610073L1.20196 4.78084C0.896872 4.90616 0.697632 5.20342 0.697632 5.53326V20.4667C0.697632 20.7966 0.896821 21.0938 1.20196 21.2192L12.6911 25.939C12.887 26.0195 13.1072 26.0212 13.3083 25.9389C13.3181 25.9357 12.8831 26.1141 24.7984 21.2192C25.1035 21.0938 25.3027 20.7966 25.3027 20.4667V5.53326ZM13.0002 9.4421L8.76687 7.70304L17.9155 3.71209L22.4319 5.56748L13.0002 9.4421ZM2.32449 6.81523L5.97685 8.31565V12.5487C5.97685 12.998 6.34106 13.3622 6.79028 13.3622C7.2395 13.3622 7.60371 12.998 7.60371 12.5487V8.98399L12.1867 10.8667V23.973L2.32449 19.9215V6.81523ZM13.0002 1.6928L15.82 2.85123L6.67142 6.84218L3.56843 5.56743L13.0002 1.6928ZM13.8136 10.8667L23.6758 6.81523V19.9215L13.8136 23.973V10.8667Z" fill="white"/>
</svg>
