<svg width="114" height="58" viewBox="0 0 114 58" fill="none" xmlns="http://www.w3.org/2000/svg">
<path d="M9.71669 53.8246V53.8726C9.71669 55.1199 9.33291 56.1273 8.56536 56.8469C7.74984 57.5665 6.69446 57.9023 5.25531 57.9023C3.81616 57.9023 2.66483 57.4225 1.80134 56.5111C0.93785 55.5996 0.506104 54.4003 0.506104 52.9612V50.6105C0.506104 49.1714 0.93785 47.9721 1.80134 47.0606C2.66483 46.1492 3.76819 45.6694 5.15937 45.6694C6.59852 45.6694 7.74984 46.0052 8.56536 46.7248C9.38089 47.4444 9.76466 48.4518 9.76466 49.6991V49.747H7.46201C7.46201 48.9795 7.27013 48.4038 6.93432 48.068C6.55055 47.6843 6.02286 47.4924 5.25531 47.4924C4.53573 47.4924 4.00804 47.7802 3.5763 48.3559C3.19252 48.9315 2.95266 49.6511 2.95266 50.5626V52.9612C2.95266 53.8726 3.14455 54.6402 3.5763 55.2158C4.00804 55.7915 4.58371 56.0793 5.35125 56.0793C6.07083 56.0793 6.59852 55.8874 6.93432 55.5037C7.27013 55.1199 7.46201 54.5442 7.46201 53.7767H9.71669V53.8246Z" fill="black"/>
<path d="M19.3103 55.168H15.4725L14.657 57.7105H12.1625L16.1921 45.8135H18.6387L22.6203 57.7105H20.1258L19.3103 55.168ZM16.0482 53.2971H18.7346L17.4394 49.1235H17.3914L16.0482 53.2971Z" fill="black"/>
<path d="M35.1905 45.8613V57.7583H32.7919V47.7322H29.4339V51.3301C29.4339 53.6328 29.0981 55.2638 28.3785 56.2712C27.7069 57.2786 26.6036 57.8063 25.1644 57.8063H24.8286V55.9834H25.1644C25.932 55.9834 26.4117 55.6476 26.6515 54.976C26.8914 54.3044 27.0353 53.1051 27.0353 51.3301V45.9093H35.1905V45.8613Z" fill="black"/>
<path d="M45.3602 55.168H41.5225L40.7069 57.7105H38.2124L42.242 45.8135H44.6886L48.6702 57.7105H46.1757L45.3602 55.168ZM42.0981 53.2971H44.7845L43.4893 49.1235H43.4413L42.0981 53.2971Z" fill="black"/>
<path d="M59.0313 47.6843H55.6253V57.7104H53.2267V47.6843H49.8687V45.8613H58.9833V47.6843H59.0313Z" fill="black"/>
<path d="M71.4099 52.8656C71.4099 54.3527 70.9302 55.552 70.0187 56.4634C69.1073 57.4229 67.908 57.9026 66.4208 57.9026C64.9337 57.9026 63.7824 57.4229 62.823 56.4634C61.9115 55.504 61.4318 54.3047 61.4318 52.8656V50.7548C61.4318 49.3157 61.9115 48.1164 62.823 47.1569C63.7344 46.1975 64.9337 45.7178 66.3729 45.7178C67.86 45.7178 69.0593 46.1975 69.9707 47.1569C70.8822 48.1164 71.3619 49.3157 71.3619 50.7548V52.8656H71.4099ZM69.0593 50.7068C69.0593 49.7954 68.8194 49.0278 68.3877 48.4522C67.908 47.8765 67.2843 47.5407 66.4688 47.5407C65.6533 47.5407 65.0297 47.8285 64.5979 48.4522C64.1662 49.0278 63.9263 49.7954 63.9263 50.7068V52.8656C63.9263 53.825 64.1662 54.5925 64.5979 55.1682C65.0297 55.7439 65.7013 56.0797 66.4688 56.0797C67.2843 56.0797 67.908 55.7918 68.3877 55.1682C68.8674 54.5925 69.0593 53.825 69.0593 52.8656V50.7068Z" fill="black"/>
<path d="M74.9573 57.7583V45.8613H78.843C80.2342 45.8613 81.3375 46.1492 82.1051 46.6768C82.8726 47.2045 83.3044 48.0201 83.3044 49.1234C83.3044 49.6511 83.1604 50.1308 82.8726 50.5626C82.5848 50.9943 82.153 51.3301 81.6253 51.522C82.3449 51.6659 82.9206 52.0017 83.3044 52.4814C83.6881 53.0091 83.88 53.5848 83.88 54.2564C83.88 55.4077 83.4962 56.2712 82.7767 56.8469C82.0091 57.4225 80.9537 57.7104 79.5626 57.7104H74.9573V57.7583ZM77.3559 50.8504H78.9389C79.5626 50.8504 80.0423 50.7065 80.4261 50.4666C80.7619 50.2268 80.9537 49.843 80.9537 49.3153C80.9537 48.7876 80.7619 48.3559 80.4261 48.116C80.0903 47.8761 79.5626 47.7322 78.891 47.7322H77.4038V50.8504H77.3559ZM77.3559 52.4814V55.8874H79.5626C80.1862 55.8874 80.6659 55.7435 81.0017 55.4557C81.3375 55.1679 81.4814 54.7841 81.4814 54.2564C81.4814 53.6807 81.3375 53.249 81.0017 52.9132C80.6659 52.6253 80.1862 52.4335 79.5146 52.4335H77.3559V52.4814Z" fill="black"/>
<path d="M89.687 50.035H91.7498C93.093 50.035 94.1964 50.3708 95.0119 51.0904C95.8274 51.81 96.2112 52.7214 96.2112 53.8728C96.2112 55.0241 95.8274 55.9356 95.0119 56.6551C94.1964 57.3747 93.141 57.7105 91.7498 57.7105H87.3364V45.8135H89.735V50.035H89.687ZM89.687 51.8579V55.8876H91.7498C92.4214 55.8876 92.9491 55.6957 93.2849 55.3119C93.6687 54.9282 93.8126 54.4484 93.8126 53.8728C93.8126 53.2971 93.6207 52.8654 93.2849 52.4816C92.9011 52.0978 92.4214 51.9059 91.7498 51.9059H89.687V51.8579ZM99.6172 57.7585H97.2186V45.8615H99.6172V57.7585Z" fill="black"/>
<path d="M110.601 45.8616H112.999V57.7586H110.601V49.7952H110.553L105.756 57.7586H103.357V45.8616H105.756V53.7769H105.804L110.601 45.8616ZM110.985 42.2637V42.3116C111.033 42.9832 110.793 43.5589 110.265 43.9907C109.737 44.4224 109.066 44.6623 108.202 44.6623C107.339 44.6623 106.667 44.4224 106.139 43.9907C105.612 43.5589 105.372 42.9832 105.42 42.3116V42.2637H107.147C107.147 42.5515 107.243 42.7914 107.387 42.9832C107.531 43.1751 107.818 43.2711 108.154 43.2711C108.49 43.2711 108.73 43.1751 108.922 42.9832C109.066 42.7914 109.162 42.5515 109.162 42.2637H110.985Z" fill="black"/>
<path d="M61.4295 24.3704C61.9572 24.1305 62.1491 23.5069 61.9092 22.9792C61.8613 22.8833 57.5438 13.7206 64.068 7.14851C69.3449 1.82364 79.9946 2.49525 84.2161 2.97497C83.0648 4.46209 81.6256 6.81271 81.9614 8.73158C82.1533 9.93088 82.3932 17.5104 78.2676 22.0677C76.0129 24.5623 72.7509 25.7136 68.6733 25.4258C68.0976 25.3778 67.6179 25.8095 67.5699 26.3852C67.5219 26.9609 67.9537 27.4406 68.5293 27.4886C69.0091 27.5365 69.4888 27.5365 69.9205 27.5365C74.0461 27.5365 77.3562 26.1933 79.8027 23.4589C84.5519 18.23 84.2641 9.83493 83.9763 8.39578C83.7364 6.95662 85.6553 4.2702 86.9505 2.97497C87.1904 2.68713 87.2863 2.30336 87.1904 1.96756C87.0944 1.58378 86.7586 1.34392 86.4228 1.24798C85.7512 1.10406 70.0165 -1.72627 62.6288 5.70936C59.5106 8.87549 58.0715 13.0011 58.5032 17.7023C58.839 21.2042 60.0383 23.7467 60.0863 23.8907C60.3262 24.4184 60.9018 24.6582 61.4295 24.3704Z" fill="#8EBF57"/>
<path d="M47.566 19.1413C47.0384 18.9015 46.4627 19.0934 46.1749 19.5731C45.935 20.1008 46.1269 20.6764 46.6066 20.9643C53.8983 24.754 55.1936 35.8355 55.3854 38.1861H0.457764V39.8652H57.4482V38.1861C57.2563 35.8835 56.057 23.5547 47.566 19.1413Z" fill="#8EBF57"/>
<path d="M55.2895 16.0713C49.7248 10.8424 38.4994 13.3369 38.0197 13.4329C37.6359 13.5288 37.3481 13.8166 37.2522 14.1524C37.1562 14.5362 37.2522 14.92 37.54 15.1598C38.4994 16.0713 39.7947 17.7983 39.6987 18.6618C39.4589 20.3408 39.8426 26.0974 43.1527 29.4554C44.9276 31.2784 47.2303 32.1898 49.9647 32.1898C50.4444 32.1898 50.9721 32.1418 51.4518 32.0939C52.0275 32.0459 52.4112 31.5182 52.3633 30.9426C52.3153 30.3669 51.7876 29.9831 51.2119 30.0311C48.4296 30.3189 46.1749 29.6473 44.5918 28.0163C41.6176 24.9941 41.6176 19.7651 41.7135 18.9016C41.9054 17.6064 41.0419 16.1193 40.2264 15.0639C43.4405 14.6321 50.2525 14.1524 53.8504 17.5105C58.4557 21.8279 55.8172 28.0642 55.7213 28.3041C55.4814 28.8318 55.7213 29.4075 56.249 29.6473C56.7767 29.8872 57.3523 29.6473 57.5922 29.1196C57.6402 29.0237 58.4557 27.1528 58.5996 24.6103C58.7915 21.2523 57.6402 18.278 55.2895 16.0713Z" fill="#8EBF57"/>
<path d="M62.8684 38.2344C62.9644 35.5959 63.8759 17.6065 74.5736 11.562C75.0533 11.2742 75.2452 10.6506 74.9573 10.1709C74.6695 9.69115 74.0459 9.49926 73.5662 9.78709C68.3372 12.7134 64.4995 18.47 62.3887 26.3374C60.9975 31.5183 60.8057 36.8912 60.8057 38.2823V39.9613H113.671V38.2823H62.8684V38.2344Z" fill="#8EBF57"/>
</svg>
