<svg width="50" height="50" viewBox="0 0 50 50" fill="none" xmlns="http://www.w3.org/2000/svg">
<path d="M43.3333 17.5551V17.2134C43.3308 16.6327 43.1267 16.0709 42.7558 15.624C42.3849 15.1771 41.8703 14.8729 41.3 14.7634L32.95 13.1717C27.698 12.1635 22.302 12.1635 17.05 13.1717L8.7 14.7634C8.12968 14.8729 7.6151 15.1771 7.24422 15.624C6.87334 16.0709 6.66919 16.6327 6.66667 17.2134V17.5551C4.83502 17.7628 3.14365 18.6366 1.9144 20.0103C0.685145 21.384 0.00379749 23.1617 0 25.0051V26.6717C0.00379749 28.5151 0.685145 30.2928 1.9144 31.6665C3.14365 33.0402 4.83502 33.914 6.66667 34.1217V34.4634C6.66919 35.0441 6.87334 35.606 7.24422 36.0528C7.6151 36.4997 8.12968 36.8039 8.7 36.9134L17.05 38.5051C19.6707 39.0035 22.3324 39.2546 25 39.2551C27.6676 39.2546 30.3293 39.0035 32.95 38.5051L41.3 36.9134C41.8703 36.8039 42.3849 36.4997 42.7558 36.0528C43.1267 35.606 43.3308 35.0441 43.3333 34.4634V34.1217C45.165 33.914 46.8563 33.0402 48.0856 31.6665C49.3149 30.2928 49.9962 28.5151 50 26.6717V25.0051C49.9962 23.1617 49.3149 21.384 48.0856 20.0103C46.8563 18.6366 45.165 17.7628 43.3333 17.5551ZM6.66667 32.4467C5.27902 32.2442 4.01048 31.5494 3.09256 30.4892C2.17464 29.429 1.66856 28.0741 1.66667 26.6717V25.0051C1.66856 23.6027 2.17464 22.2478 3.09256 21.1876C4.01048 20.1274 5.27902 19.4326 6.66667 19.2301V32.4467ZM41.6667 34.4634C41.6663 34.6567 41.5988 34.8438 41.4757 34.9928C41.3525 35.1418 41.1814 35.2434 40.9917 35.2801L32.6417 36.8717C27.5923 37.8301 22.4077 37.8301 17.3583 36.8717L9.00833 35.2801C8.81857 35.2434 8.64747 35.1418 8.52434 34.9928C8.4012 34.8438 8.33368 34.6567 8.33333 34.4634V17.2134C8.33368 17.0201 8.4012 16.833 8.52434 16.684C8.64747 16.535 8.81857 16.4335 9.00833 16.3967L17.3583 14.8051C22.408 13.8495 27.592 13.8495 32.6417 14.8051L40.9917 16.3967C41.1814 16.4335 41.3525 16.535 41.4757 16.684C41.5988 16.833 41.6663 17.0201 41.6667 17.2134V34.4634ZM48.3333 26.6717C48.3314 28.0741 47.8254 29.429 46.9074 30.4892C45.9895 31.5494 44.721 32.2442 43.3333 32.4467V19.2301C44.721 19.4326 45.9895 20.1274 46.9074 21.1876C47.8254 22.2478 48.3314 23.6027 48.3333 25.0051V26.6717Z" fill="#54C052"/>
<path d="M37.5 25.0051H12.5C12.2789 25.0051 12.067 25.0929 11.9107 25.2492C11.7544 25.4055 11.6666 25.6174 11.6666 25.8385C11.6666 26.0595 11.7544 26.2714 11.9107 26.4277C12.067 26.584 12.2789 26.6718 12.5 26.6718H37.5C37.721 26.6718 37.9329 26.584 38.0892 26.4277C38.2455 26.2714 38.3333 26.0595 38.3333 25.8385C38.3333 25.6174 38.2455 25.4055 38.0892 25.2492C37.9329 25.0929 37.721 25.0051 37.5 25.0051Z" fill="#54C052"/>
<path d="M37.5 20.0051H12.5C12.2789 20.0051 12.067 20.0929 11.9107 20.2492C11.7544 20.4055 11.6666 20.6174 11.6666 20.8385C11.6666 21.0595 11.7544 21.2714 11.9107 21.4277C12.067 21.584 12.2789 21.6718 12.5 21.6718H37.5C37.721 21.6718 37.9329 21.584 38.0892 21.4277C38.2455 21.2714 38.3333 21.0595 38.3333 20.8385C38.3333 20.6174 38.2455 20.4055 38.0892 20.2492C37.9329 20.0929 37.721 20.0051 37.5 20.0051Z" fill="#54C052"/>
<path d="M37.5 30.0051H12.5C12.2789 30.0051 12.067 30.0929 11.9107 30.2492C11.7544 30.4055 11.6666 30.6174 11.6666 30.8385C11.6666 31.0595 11.7544 31.2714 11.9107 31.4277C12.067 31.584 12.2789 31.6718 12.5 31.6718H37.5C37.721 31.6718 37.9329 31.584 38.0892 31.4277C38.2455 31.2714 38.3333 31.0595 38.3333 30.8385C38.3333 30.6174 38.2455 30.4055 38.0892 30.2492C37.9329 30.0929 37.721 30.0051 37.5 30.0051Z" fill="#54C052"/>
</svg>
