<svg width="39" height="35" viewBox="0 0 39 35" fill="none" xmlns="http://www.w3.org/2000/svg">
<path d="M25.673 30.0526C25.7366 30.0632 25.7998 30.0684 25.8622 30.0684C26.4106 30.0684 26.8947 29.6723 26.9879 29.1134L28.1305 22.2579C28.2342 21.6355 27.8137 21.0468 27.1913 20.943C26.5688 20.839 25.9801 21.2598 25.8764 21.8822L24.7338 28.7377C24.6301 29.3602 25.0505 29.9489 25.673 30.0526Z" fill="#58C256"/>
<path d="M12.0892 29.1138C12.1824 29.6727 12.6664 30.0688 13.2149 30.0688C13.2773 30.0688 13.3405 30.0637 13.4041 30.053C14.0266 29.9492 14.447 29.3606 14.3433 28.7381L13.2007 21.8826C13.097 21.2602 12.5084 20.8398 11.8858 20.9434C11.2634 21.0472 10.8429 21.6358 10.9466 22.2583L12.0892 29.1138Z" fill="#58C256"/>
<path d="M37.8582 11.7871H33.837L25.0394 0.790163C24.6453 0.297559 23.9263 0.217502 23.4335 0.611768C22.9407 1.00596 22.8608 1.72494 23.2551 2.2177L30.9106 11.7871H8.09087L15.7464 2.2177C16.1406 1.72494 16.0607 1.00588 15.5681 0.611768C15.0752 0.217502 14.3562 0.297483 13.9621 0.790163L5.1645 11.7871H1.14331C0.512303 11.7871 0.000732422 12.2987 0.000732422 12.9297V17.5C0.000732422 18.131 0.512303 18.6426 1.14331 18.6426H2.56666L6.90023 33.81C7.04031 34.3005 7.48866 34.6387 7.99878 34.6387H31.0027C31.5128 34.6387 31.9612 34.3005 32.1013 33.81L36.4348 18.6426H37.8582C38.4892 18.6426 39.0007 18.131 39.0007 17.5V12.9297C39.0007 12.2987 38.4892 11.7871 37.8582 11.7871ZM30.1409 32.3535H8.86059L4.94322 18.6426H34.0583L30.1409 32.3535ZM36.7156 16.3574C32.8015 16.3574 5.99394 16.3574 2.28589 16.3574V14.0723H36.7156V16.3574Z" fill="#58C256"/>
<path d="M19.5007 30.0684C20.1317 30.0684 20.6433 29.5568 20.6433 28.9258V22.0703C20.6433 21.4393 20.1317 20.9277 19.5007 20.9277C18.8697 20.9277 18.3582 21.4393 18.3582 22.0703V28.9258C18.3582 29.5569 18.8697 30.0684 19.5007 30.0684Z" fill="#58C256"/>
</svg>
