<svg width="27" height="27" viewBox="0 0 27 27" fill="none" xmlns="http://www.w3.org/2000/svg">
<path d="M21.9067 15.568C21.3392 14.9771 20.6547 14.6612 19.9292 14.6612C19.2096 14.6612 18.5193 14.9713 17.9284 15.5622L16.0796 17.405C15.9275 17.3231 15.7754 17.2471 15.6292 17.171C15.4185 17.0657 15.2196 16.9663 15.05 16.861C13.3182 15.7611 11.7445 14.3277 10.2351 12.4731C9.50376 11.5488 9.01232 10.7706 8.65544 9.98084C9.13518 9.54206 9.57981 9.08572 10.0127 8.64694C10.1766 8.48313 10.3404 8.31347 10.5042 8.14965C11.7328 6.92106 11.7328 5.32975 10.5042 4.10115L8.90701 2.50399C8.72565 2.32262 8.53843 2.13541 8.36292 1.94819C8.0119 1.58547 7.64332 1.21104 7.26304 0.860014C6.69555 0.298372 6.0169 0 5.30314 0C4.58939 0 3.89904 0.298372 3.314 0.860014C3.30815 0.865864 3.30815 0.865864 3.3023 0.871715L1.31315 2.87841C0.564293 3.62727 0.137212 4.53994 0.0436049 5.59887C-0.0968055 7.30719 0.406332 8.89851 0.79246 9.93989C1.74023 12.4965 3.15604 14.866 5.26804 17.405C7.83053 20.4648 10.9137 22.881 14.4357 24.5835C15.7813 25.2212 17.5774 25.9759 19.5841 26.1046C19.7069 26.1105 19.8356 26.1163 19.9526 26.1163C21.3041 26.1163 22.4391 25.6308 23.3283 24.6654C23.3342 24.6537 23.3459 24.6479 23.3517 24.6362C23.656 24.2676 24.007 23.9341 24.3756 23.5772C24.6271 23.3374 24.8845 23.0858 25.1361 22.8225C25.7153 22.2199 26.0195 21.5179 26.0195 20.7983C26.0195 20.0728 25.7095 19.3766 25.1186 18.7916L21.9067 15.568ZM24.0011 21.7285C23.9953 21.7285 23.9953 21.7344 24.0011 21.7285C23.773 21.9742 23.5389 22.1965 23.2874 22.4423C22.9071 22.805 22.521 23.1853 22.1582 23.6124C21.5674 24.2442 20.8711 24.5426 19.9585 24.5426C19.8707 24.5426 19.7771 24.5426 19.6894 24.5367C17.9518 24.4256 16.3371 23.7469 15.126 23.1677C11.8147 21.5647 8.90701 19.2889 6.49078 16.4046C4.49579 14.0001 3.16189 11.7769 2.27847 9.38995C1.73438 7.93319 1.53547 6.7982 1.62322 5.72757C1.68173 5.04307 1.945 4.47558 2.43058 3.99L4.42558 1.995C4.71225 1.72588 5.01647 1.57962 5.31485 1.57962C5.68342 1.57962 5.9818 1.80193 6.16901 1.98915C6.17486 1.995 6.18071 2.00085 6.18656 2.0067C6.54344 2.34017 6.88276 2.68535 7.23964 3.05393C7.421 3.24114 7.60822 3.42835 7.79543 3.62142L9.3926 5.21859C10.0127 5.83873 10.0127 6.41208 9.3926 7.03222C9.22294 7.20188 9.05912 7.37155 8.88946 7.53536C8.39802 8.0385 7.92999 8.50653 7.421 8.96286C7.4093 8.97457 7.3976 8.98042 7.39175 8.99212C6.88861 9.49525 6.98222 9.98669 7.08753 10.3202C7.09338 10.3377 7.09923 10.3553 7.10508 10.3728C7.52046 11.3791 8.1055 12.3269 8.99477 13.456L9.00062 13.4618C10.6153 15.451 12.3178 17.0014 14.1958 18.189C14.4357 18.3411 14.6814 18.464 14.9154 18.581C15.126 18.6863 15.3249 18.7857 15.4946 18.8911C15.518 18.9028 15.5414 18.9203 15.5648 18.932C15.7637 19.0315 15.9509 19.0783 16.144 19.0783C16.6296 19.0783 16.9338 18.774 17.0333 18.6746L19.0341 16.6737C19.233 16.4748 19.549 16.235 19.9175 16.235C20.2803 16.235 20.5786 16.4631 20.76 16.662C20.7658 16.6679 20.7658 16.6679 20.7717 16.6737L23.9953 19.8973C24.5979 20.4941 24.5979 21.1084 24.0011 21.7285Z" fill="#5AC358"/>
</svg>
