<svg width="50" height="50" viewBox="0 0 50 50" fill="none" xmlns="http://www.w3.org/2000/svg">
<path d="M38.3333 0H11.6667C9.36646 0.00284831 7.50285 1.86646 7.5 4.16667V45.8333C7.50285 48.1335 9.36646 49.9972 11.6667 50H38.3333C40.6335 49.9972 42.4972 48.1335 42.5 45.8333V4.16667C42.4972 1.86646 40.6335 0.00284831 38.3333 0ZM9.16667 6.66667H40.8333V41.6667H9.16667V6.66667ZM11.6667 1.66667H38.3333C39.7139 1.66667 40.8333 2.78605 40.8333 4.16667V5H9.16667V4.16667C9.16667 2.78605 10.2861 1.66667 11.6667 1.66667ZM38.3333 48.3333H11.6667C10.2861 48.3333 9.16667 47.2139 9.16667 45.8333V43.3333H40.8333V45.8333C40.8333 47.2139 39.7139 48.3333 38.3333 48.3333Z" fill="white"/>
<path d="M27.5 45H22.5C22.0398 45 21.6667 45.3731 21.6667 45.8333C21.6667 46.2935 22.0398 46.6667 22.5 46.6667H27.5C27.9602 46.6667 28.3334 46.2935 28.3334 45.8333C28.3334 45.3731 27.9602 45 27.5 45Z" fill="white"/>
</svg>
