<svg width="50" height="50" viewBox="0 0 50 50" fill="none" xmlns="http://www.w3.org/2000/svg">
<g clip-path="url(#clip0)">
<path d="M46.2397 13.5663L46.2382 13.5274C46.2164 13.0471 46.2019 12.539 46.1931 11.9736C46.1523 9.21676 43.9608 6.93634 41.2035 6.78223C35.4548 6.46141 31.0076 4.58688 27.2078 0.883195L27.1754 0.852296C25.936 -0.284099 24.0664 -0.284099 22.8267 0.852296L22.7942 0.883195C18.9944 4.58688 14.5473 6.46141 8.79854 6.78261C6.04166 6.93634 3.84974 9.21676 3.80893 11.974C3.80053 12.5355 3.78566 13.0437 3.76391 13.5274L3.76162 13.6178C3.64985 19.4798 3.511 26.7754 5.95164 33.3973C7.29364 37.0388 9.32611 40.2042 11.9922 42.8062C15.0287 45.7695 19.0059 48.122 23.8131 49.7982C23.9695 49.8527 24.132 49.897 24.2976 49.9302C24.5311 49.9767 24.7661 50 25.001 50C25.236 50 25.4714 49.9767 25.7045 49.9302C25.87 49.897 26.0337 49.8523 26.1908 49.7974C30.9924 48.1182 34.9654 45.7645 37.9992 42.8016C40.6641 40.1989 42.6966 37.0327 44.0398 33.3904C46.4895 26.7487 46.3511 19.4394 46.2397 13.5663ZM41.2871 32.3753C38.7129 39.3547 33.4582 44.1479 25.2227 47.0279C25.1933 47.0379 25.162 47.0466 25.1296 47.0531C25.0445 47.0699 24.9579 47.0699 24.8717 47.0527C24.8397 47.0462 24.8084 47.0379 24.7794 47.0279C16.5351 44.1532 11.2769 39.3627 8.7047 32.383C6.45517 26.2791 6.58259 19.582 6.69512 13.6738L6.69588 13.641C6.71877 13.1333 6.73403 12.6015 6.74242 12.0171C6.76073 10.793 7.73576 9.78019 8.96219 9.71191C12.2154 9.53033 15.0733 8.90167 17.6993 7.79007C20.3219 6.67999 22.6512 5.11521 24.8195 3.00645C24.9297 2.91337 25.0728 2.91299 25.1826 3.00645C27.3513 5.11521 29.6805 6.67999 32.3027 7.79007C34.9288 8.90167 37.7867 9.53033 41.0403 9.71191C42.2667 9.78019 43.2417 10.793 43.2597 12.0175C43.2684 12.605 43.2837 13.1367 43.3066 13.641C43.4187 19.5561 43.5431 26.2585 41.2871 32.3753Z" fill="url(#paint0_linear)"/>
<path d="M25.0001 12.54C18.1291 12.54 12.5394 18.1301 12.5394 25.0007C12.5394 31.8718 18.1291 37.4618 25.0001 37.4618C31.8708 37.4618 37.4608 31.8718 37.4608 25.0007C37.4608 18.1301 31.8708 12.54 25.0001 12.54ZM25.0001 34.5276C19.7469 34.5276 15.4733 30.254 15.4733 25.0007C15.4733 19.7475 19.7469 15.4739 25.0001 15.4739C30.253 15.4739 34.5266 19.7475 34.5266 25.0007C34.5266 30.254 30.253 34.5276 25.0001 34.5276Z" fill="url(#paint1_linear)"/>
<path d="M28.5823 21.1324L22.7946 26.9201L21.2237 25.3492C20.6508 24.7762 19.7219 24.7762 19.1489 25.3492C18.5763 25.9221 18.5763 26.851 19.1489 27.4236L21.7574 30.0321C22.0439 30.3186 22.4193 30.4616 22.7946 30.4616C23.17 30.4616 23.5454 30.3186 23.8318 30.0321L30.6571 23.2068C31.2297 22.6339 31.2297 21.705 30.6571 21.1324C30.0841 20.5591 29.1553 20.5591 28.5823 21.1324Z" fill="url(#paint2_linear)"/>
</g>
<defs>
<linearGradient id="paint0_linear" x1="4.00073" y1="25.0001" x2="46.0007" y2="25.0001" gradientUnits="userSpaceOnUse">
<stop stop-color="#87DB85"/>
<stop offset="1" stop-color="#54C052"/>
</linearGradient>
<linearGradient id="paint1_linear" x1="13.0004" y1="25" x2="37.0004" y2="25" gradientUnits="userSpaceOnUse">
<stop stop-color="#87DB85"/>
<stop offset="1" stop-color="#54C052"/>
</linearGradient>
<linearGradient id="paint2_linear" x1="19.0007" y1="26.0001" x2="31.0007" y2="26.0001" gradientUnits="userSpaceOnUse">
<stop stop-color="#87DB85"/>
<stop offset="1" stop-color="#54C052"/>
</linearGradient>
<clipPath id="clip0">
<rect width="50" height="50" fill="white"/>
</clipPath>
</defs>
</svg>
