<svg width="44" height="50" viewBox="0 0 44 50" fill="none" xmlns="http://www.w3.org/2000/svg">
<path d="M36.6484 32.3242H30.7891C29.9813 32.3242 29.3242 31.6671 29.3242 30.8594V30.8554C29.877 30.4395 30.3691 29.9473 30.7851 29.3945H33.7188C36.1419 29.3945 38.1133 27.4231 38.1133 25V16.1133C38.1133 7.22842 30.8849 0 22 0C13.1151 0 5.88672 7.22842 5.88672 16.1133V25C5.88672 27.4231 7.85811 29.3945 10.2812 29.3945H13.2149C13.6309 29.9473 14.1229 30.4395 14.6757 30.8553V30.8594C14.6758 31.6671 14.0187 32.3242 13.2109 32.3242H7.35156C3.31299 32.3242 0.0273438 35.6099 0.0273438 39.6484V48.5352C0.0273438 49.3441 0.683203 50 1.49219 50C2.55205 50 41.4259 50 42.5078 50C43.3168 50 43.9727 49.3441 43.9727 48.5352V39.6484C43.9727 35.6099 40.687 32.3242 36.6484 32.3242ZM29.3242 25C29.3242 27.4231 27.3528 29.3945 24.9297 29.3945H19.0703C16.6472 29.3945 14.6758 27.4231 14.6758 25V17.5781H16.1406C18.534 17.5781 20.6626 16.424 22 14.6434C23.3374 16.424 25.466 17.5781 27.8594 17.5781H29.3242V25ZM13.2109 14.6484C12.402 14.6484 11.7461 15.3043 11.7461 16.1133V25C11.7461 25.5016 11.797 25.9914 11.8935 26.4648H10.2812C9.47354 26.4648 8.81641 25.8077 8.81641 25V16.1133C8.81641 8.84385 14.7306 2.92969 22 2.92969C29.2694 2.92969 35.1836 8.84385 35.1836 16.1133V25C35.1836 25.8077 34.5265 26.4648 33.7188 26.4648H32.1065C32.203 25.9914 32.2539 25.5016 32.2539 25V16.1133C32.2539 15.3043 31.598 14.6484 30.7891 14.6484H27.8594C25.4362 14.6484 23.4648 12.6771 23.4648 10.2539V7.32422C23.4648 6.51523 22.809 5.85938 22 5.85938C21.191 5.85938 20.5352 6.51523 20.5352 7.32422V10.2539C20.5352 12.6771 18.5638 14.6484 16.1406 14.6484H13.2109ZM8.81641 47.0703H2.95703V39.6484C2.95703 37.2253 4.92842 35.2539 7.35156 35.2539H8.81641C8.81641 35.5562 8.81641 46.6153 8.81641 47.0703ZM32.2539 47.0703H11.7461V41.9081C14.9986 43.2025 18.5013 43.8797 22 43.8797C25.4987 43.8797 29.0014 43.2024 32.2539 41.9081V47.0703ZM32.2539 38.7226C25.7694 41.6716 18.2306 41.6716 11.7461 38.7226V35.2539H13.2109C15.191 35.2539 16.8688 33.9372 17.4164 32.1336C17.9483 32.2569 18.5015 32.3242 19.0703 32.3242H24.9297C25.4985 32.3242 26.0517 32.2569 26.5836 32.1336C27.1312 33.9372 28.809 35.2539 30.7891 35.2539H32.2539V38.7226ZM41.043 47.0703H35.1836C35.1836 46.6215 35.1836 35.5582 35.1836 35.2539H36.6484C39.0716 35.2539 41.043 37.2253 41.043 39.6484V47.0703Z" fill="url(#paint0_linear)"/>
<defs>
<linearGradient id="paint0_linear" x1="-8.36362e-07" y1="25" x2="44" y2="25" gradientUnits="userSpaceOnUse">
<stop stop-color="#87DB85"/>
<stop offset="1" stop-color="#54C052"/>
</linearGradient>
</defs>
</svg>
