<svg width="50" height="50" viewBox="0 0 50 50" fill="none" xmlns="http://www.w3.org/2000/svg">
<g clip-path="url(#clip0)">
<path d="M13.0859 25.9569C13.0859 24.8781 13.9603 24.0038 15.0391 24.0038H24.0234V10.3319C24.0234 9.2531 24.8978 8.37877 25.9766 8.37877C27.055 8.37877 27.9297 9.2531 27.9297 10.3319V25.9569C27.9297 27.0357 27.055 27.91 25.9766 27.91H15.0391C13.9603 27.91 13.0859 27.0357 13.0859 25.9569ZM49.1837 31.7854C48.3063 31.1571 47.0863 31.3593 46.4588 32.2363L36.8317 45.6835C36.5688 45.9886 36.2392 46.0542 36.0626 46.0661C35.8818 46.0783 35.5331 46.055 35.2261 45.767L29.0047 39.6955C28.2326 38.9421 26.9962 38.9574 26.2428 39.7295C25.4894 40.5012 25.5043 41.7379 26.2764 42.4913L32.5089 48.5735C32.5146 48.5792 32.5203 48.5849 32.5264 48.5903C33.4606 49.4798 34.708 49.9746 35.9913 49.9746C36.1015 49.9746 36.2122 49.9708 36.3224 49.9635C37.7205 49.8705 39.0255 49.1907 39.9033 48.0985C39.9258 48.0703 39.9475 48.0413 39.9689 48.0119L49.6349 34.5102C50.2628 33.6332 50.0607 32.4129 49.1837 31.7854ZM24.5533 46.0695C13.1683 45.8334 3.90625 36.3729 3.90625 24.9803C3.90625 19.7195 5.87616 14.6734 9.375 10.8122V14.8241C9.375 15.9029 10.2493 16.7772 11.3281 16.7772C12.4069 16.7772 13.2812 15.9029 13.2812 14.8241V10.3319C13.2812 7.10123 10.6525 4.47252 7.42188 4.47252H2.92969C1.85089 4.47252 0.976562 5.34685 0.976562 6.42564C0.976562 7.50444 1.85089 8.37877 2.92969 8.37877H6.3118C2.27165 12.9293 0 18.8307 0 24.9803C0 31.566 2.53906 37.7821 7.14951 42.4837C11.7535 47.1781 17.9054 49.8384 24.4724 49.9746C24.4862 49.975 24.4999 49.975 24.5136 49.975C25.5733 49.975 26.4435 49.127 26.4656 48.0623C26.4877 46.9839 25.6317 46.0916 24.5533 46.0695ZM25.8949 3.90527C37.2215 4.37753 46.0938 13.6347 46.0938 24.9803C46.0938 25.2779 46.0873 25.5792 46.0751 25.8768C46.03 26.9544 46.867 27.8646 47.9446 27.9096C47.9725 27.9108 48 27.9112 48.0278 27.9112C49.0688 27.9112 49.934 27.0895 49.9779 26.0397C49.9924 25.6883 50 25.332 50 24.9803C50 18.487 47.522 12.3338 43.0229 7.65474C38.5365 2.98898 32.5115 0.271393 26.0578 0.00245696C24.9805 -0.0440823 24.07 0.79477 24.025 1.87242C23.9803 2.95007 24.8173 3.86026 25.8949 3.90527Z" fill="url(#paint0_linear)"/>
</g>
<defs>
<linearGradient id="paint0_linear" x1="3.74169e-07" y1="24.9999" x2="50" y2="24.9999" gradientUnits="userSpaceOnUse">
<stop stop-color="#87DB85"/>
<stop offset="1" stop-color="#54C052"/>
</linearGradient>
<clipPath id="clip0">
<rect width="50" height="50" fill="white"/>
</clipPath>
</defs>
</svg>
